<svg xmlns="http://www.w3.org/2000/svg" width="70" height="70" viewBox="0 0 70 70">
  <defs>
    <style>
      .cls-1 {
        fill: #f9f9f9;
        fill-rule: evenodd;
      }
    </style>
  </defs>
  <path id="icon" class="cls-1" d="M923.242,1083.87v13.12l-13.121-13.12H888.253c-4.374,0-8.748-4.38-8.748-8.75v-2.56l6.185-6.19h20.057c6.749,0,13.121-6.37,13.121-13.12v-4.37h4.374c4.373,0,8.747,4.37,8.747,8.75v17.49C931.989,1079.49,927.615,1083.87,923.242,1083.87Zm-17.5-21.87H883.879l-13.121,13.12V1062c-4.374,0-8.747-4.37-8.747-8.75v-17.49c0-4.38,4.373-8.75,8.747-8.75h34.989c4.374,0,8.747,4.37,8.747,8.75v17.49C914.494,1057.63,910.121,1062,905.747,1062Z" transform="translate(-862 -1027)"/>
</svg>
