<svg xmlns="http://www.w3.org/2000/svg" width="20.094" height="24.656" viewBox="0 0 20.094 24.656">
  <defs>
    <style>
      .cls-1 {
        fill: #4bcaff;
        fill-rule: evenodd;
      }
    </style>
  </defs>
  <path id="icon" class="cls-1" d="M816.771,657.814a5.576,5.576,0,0,1,2.662-4.694,5.757,5.757,0,0,0-4.508-2.444c-1.921-.2-3.748,1.13-4.721,1.13s-2.477-1.1-4.069-1.072a6.037,6.037,0,0,0-5.1,3.091c-2.173,3.773-.556,9.363,1.563,12.423,1.036,1.5,2.271,3.18,3.893,3.12,1.56-.061,2.151-1.01,4.039-1.01s2.418,1.01,4.07.979c1.68-.03,2.745-1.526,3.773-3.029a13.645,13.645,0,0,0,1.708-3.507A5.446,5.446,0,0,1,816.771,657.814Zm-3.1-9.164a5.431,5.431,0,0,0,1.282-3.937,5.523,5.523,0,0,0-3.631,1.867,5.172,5.172,0,0,0-1.309,3.816A4.58,4.58,0,0,0,813.667,648.65Z" transform="translate(-800 -644.719)"/>
</svg>
