<svg xmlns="http://www.w3.org/2000/svg" width="47" height="69" viewBox="0 0 47 69">
  <defs>
    <style>
      .cls-1 {
        fill: #fff;
        fill-rule: evenodd;
      }
    </style>
  </defs>
  <path id="icon" class="cls-1" d="M599.6,1096.99H565.4a6.45,6.45,0,0,1-6.412-6.47v-56.04a6.45,6.45,0,0,1,6.412-6.47h34.2a6.444,6.444,0,0,1,6.412,6.47v56.04A6.444,6.444,0,0,1,599.6,1096.99Zm2.137-62.51a2.153,2.153,0,0,0-2.137-2.16H565.4a2.153,2.153,0,0,0-2.137,2.16v56.04a2.153,2.153,0,0,0,2.137,2.16h34.2a2.153,2.153,0,0,0,2.137-2.16v-56.04Zm-34.2,2.15h29.922v47.43H567.539v-47.43Zm14.961,49.58a2.155,2.155,0,1,1-2.137,2.16A2.153,2.153,0,0,1,582.5,1086.21Z" transform="translate(-559 -1028)"/>
</svg>
